#!OML:ASF I:\Actors\actors\Patient Classification 1\Patient 1\Session 1\Subject1.ASF
:FULLY-SPECIFIED
:DEGREES
1290
root -0.144363 17.5383 8.60569 8.0421 4.34183 -8.82926
lowerback -0.444916 1.20841 8.09619
upperback -7.24677 2.0028 1.21263
thorax -7.15896 0.539617 -3.35771
lowerneck -8.22919 -4.79404 -3.9672
upperneck 16.3546 -7.4105 8.21558
head 6.79265 -3.17195 2.6621
rclavicle -1.10325e-014 -2.10712e-014
rhumerus -59.8512 5.53407 -89.9462
rradius 89.264
rwrist 29.4722
rhand -27.6192 -31.3375
rfingers 7.12502
rthumb -1.01816 -1501.31
lclavicle -1.10325e-014 -2.10712e-014
lhumerus -62.8019 -11.0032 92.8871
lradius 92.0911
lwrist -6.83126
lhand -50.6466 -74.2406
lfingers 7.12502
lthumb -23.2095 314.381
rfemur -2.8191 19.0177 26.6088
rtibia 5.0839
rfoot -16.3581 -24.6164
rtoes 4.81929
lfemur 2.72534 -41.0823 -8.80487
ltibia -3.55756
lfoot -14.0309 46.7788
ltoes 0.873285
1291
root -0.135475 17.5348 8.63186 7.95621 3.99002 -8.8838
lowerback -0.735403 1.36095 8.45621
upperback -7.23852 2.18354 1.14111
thorax -6.95231 0.613093 -3.63317
lowerneck -8.02496 -4.89957 -4.21153
upperneck 16.0537 -7.56178 8.55721
head 6.69304 -3.24534 2.80263
rclavicle -3.32964e-015 -1.86858e-014
rhumerus -60.4732 3.49839 -88.6123
rradius 85.9465
rwrist 29.7594
rhand -26.4539 -31.9741
rfingers 7.12502
rthumb 0.107334 -1501.95
lclavicle -3.32964e-015 -1.86858e-014
lhumerus -62.6934 -9.54897 91.64
lradius 88.7526
lwrist -4.03626
lhand -50.504 -73.035
lfingers 7.12502
lthumb -23.0728 315.604
rfemur -2.51333 19.3659 26.7425
rtibia 4.91853
rfoot -16.32 -24.5857
rtoes 4.70907
lfemur 3.28507 -41.0989 -9.13831
ltibia -3.70182
lfoot -14.4305 47.0931
ltoes 1.24014
1292
root -0.134515 17.5238 8.63639 8.21928 3.61079 -8.96155
lowerback -1.08787 1.50893 8.67321
upperback -7.36857 2.3572 1.1274
thorax -6.8642 0.685922 -3.76575
lowerneck -8.01243 -4.96687 -4.29032
upperneck 16.0574 -7.65718 8.62756
head 6.70444 -3.291 2.82966
rclavicle 2.6339e-015 -3.29983e-014
rhumerus -60.8426 1.79947 -87.2854
rradius 82.3599
rwrist 30.1021
rhand -27.4941 -31.4172
rfingers 7.12502
rthumb -0.897294 -1501.4
lclavicle 2.6339e-015 -3.29983e-014
lhumerus -62.2926 -7.98731 90.3588
lradius 84.9983
lwrist -3.85528
lhand -50.5805 -72.2754
lfingers 7.12502
lthumb -23.1461 316.354
rfemur -2.89811 19.6223 26.7004
rtibia 5.08567
rfoot -16.3028 -24.4112
rtoes 4.64922
lfemur 2.99556 -40.699 -8.87295
ltibia -3.63966
lfoot -14.7192 47.0661
ltoes 1.54204
1293
root -0.13303 17.5249 8.65654 7.88664 3.72919 -8.82496
lowerback -1.10101 1.42433 8.70215
upperback -7.32332 2.23824 1.09281
thorax -6.82098 0.626966 -3.81287
lowerneck -8.09926 -5.02052 -4.29471
upperneck 16.2884 -7.73667 8.55878
head 6.79659 -3.32737 2.79897
rclavicle 3.03147e-015 1.70955e-014
rhumerus -61.0968 0.504448 -86.0927
rradius 78.6172
rwrist 30.4983
rhand -28.014 -31.3356
rfingers 7.12502
rthumb -1.39942 -1501.31
lclavicle 3.03147e-015 1.70955e-014
lhumerus -61.7616 -6.43432 89.1488
lradius 81.0361
lwrist -4.56269
lhand -50.6676 -70.9013
lfingers 7.12502
lthumb -23.2297 317.718
rfemur -2.2154 19.9043 26.7771
rtibia 4.80854
rfoot -16.4902 -24.8173
rtoes 5.22444
lfemur 3.52306 -40.5554 -9.36416
ltibia -3.67539
lfoot -14.3776 46.7759
ltoes 0.888847
1294
root -0.128551 17.5091 8.65818 8.27959 3.24134 -8.83284
lowerback -1.46747 1.59431 8.82263
upperback -7.53744 2.44128 1.08302
thorax -6.81383 0.71457 -3.8882
lowerneck -8.03626 -5.0236 -4.35492
upperneck 16.3571 -7.73692 8.54183
head 6.80893 -3.33286 2.80494
rclavicle 4.82053e-015 -5.96354e-015
rhumerus -61.2219 -0.341544 -85.1171
rradius 74.9061
rwrist 30.6135
rhand -28.054 -31.6943
rfingers 7.12502
rthumb -1.43805 -1501.67
lclavicle 4.82053e-015 -5.96354e-015
lhumerus -61.2031 -5.03551 88.1425
lradius 77.3053
lwrist -4.40834
lhand -51.0475 -67.8452
lfingers 7.12502
lthumb -23.5942 320.727
rfemur -2.88884 19.7942 26.5063
rtibia 5.10578
rfoot -16.3695 -24.2419
rtoes 4.83176
lfemur 3.1725 -40.3822 -9.19839
ltibia -3.6179
lfoot -14.6827 47.0522
ltoes 1.17016
1295
root -0.124401 17.5019 8.6623 8.41963 3.07296 -8.74536
lowerback -1.65032 1.61234 8.84357
upperback -7.67776 2.45447 1.08448
thorax -6.85954 0.714042 -3.89443
lowerneck -7.96989 -5.02613 -4.53468
upperneck 16.4547 -7.74791 8.67044
head 6.8411 -3.33879 2.8768
rclavicle -6.21202e-015 3.18055e-014
rhumerus -61.2006 -0.84903 -84.3282
rradius 71.2842
rwrist 30.4973
rhand -27.9175 -31.992
rfingers 7.12502
rthumb -1.30626 -1501.97
lclavicle -6.21202e-015 3.18055e-014
lhumerus -60.6657 -3.80458 87.3321
lradius 73.9109
lwrist -2.68441
lhand -51.7035 -62.9364
lfingers 7.12502
lthumb -24.2233 325.554
rfemur -3.12971 19.7364 26.2993
rtibia 5.24051
rfoot -16.3105 -24.0485
rtoes 4.46586
lfemur 2.98768 -40.1676 -9.22621
ltibia -3.50248
lfoot -14.8225 46.9686
ltoes 1.32346
1296
root -0.119169 17.4994 8.66839 8.36979 3.0224 -8.62559
lowerback -1.67851 1.55601 8.84847
upperback -7.74385 2.3801 1.08467
thorax -6.92553 0.67198 -3.89451
lowerneck -8.05316 -5.02154 -4.62113
upperneck 16.7042 -7.75283 8.69319
head 6.9404 -3.33694 2.89652
rclavicle 2.98177e-015 -3.69739e-014
rhumerus -61.0137 -1.25737 -83.6391
rradius 67.7169
rwrist 30.6846
rhand -27.6882 -32.0661
rfingers 7.12502
rthumb -1.08476 -1502.04
lclavicle 2.98177e-015 -3.69739e-014
lhumerus -60.0177 -2.63861 86.6021
lradius 70.4983
lwrist 0.711675
lhand -51.444 -58.5477
lfingers 7.12502
lthumb -23.9745 329.975
rfemur -3.0747 19.6587 26.1639
rtibia 5.3028
rfoot -16.274 -23.9614
rtoes 4.24612
lfemur 3.08309 -40.0563 -9.46646
ltibia -3.44411
lfoot -14.8246 46.8952
ltoes 1.22921
1297
root -0.116787 17.5001 8.67622 8.20819 3.00651 -8.56922
lowerback -1.64829 1.48164 8.86978
upperback -7.75312 2.28578 1.1027
thorax -6.96629 0.622281 -3.88524
lowerneck -8.19086 -5.02843 -4.54732
upperneck 17.0234 -7.76907 8.53886
head 7.05967 -3.34183 2.83012
rclavicle -2.20651e-014 -2.78299e-014
rhumerus -60.6677 -1.75483 -82.9782
rradius 64.0846
rwrist 31.3635
rhand -27.7769 -31.4617
rfingers 7.12502
rthumb -1.17046 -1501.44
lclavicle -2.20651e-014 -2.78299e-014
lhumerus -59.1866 -1.47052 85.8801
lradius 66.8791
lwrist 4.23785
lhand -50.6194 -56.6612
lfingers 7.12502
lthumb -23.1835 331.964
rfemur -2.84043 19.726 26.1854
rtibia 5.30718
rfoot -16.3301 -24.0463
rtoes 4.27058
lfemur 3.36361 -40.0044 -9.7136
ltibia -3.46781
lfoot -14.7751 46.8541
ltoes 1.08038
1298
root -0.116888 17.5057 8.68946 7.84714 2.95661 -8.56367
lowerback -1.51297 1.42046 8.88563
upperback -7.68744 2.21606 1.12589
thorax -6.98274 0.588361 -3.87049
lowerneck -8.24886 -5.0478 -4.38595
upperneck 17.2633 -7.80424 8.34917
head 7.13599 -3.35723 2.73747
rclavicle -1.58531e-014 5.76476e-014
rhumerus -60.1768 -2.65751 -81.9291
rradius 60.6235
rwrist 34.1572
rhand -25.826 -31.3539
rfingers 7.12502
rthumb 0.71384 -1501.33
lclavicle -1.58531e-014 5.76476e-014
lhumerus -58.2825 -0.221953 85.0941
lradius 63.0882
lwrist 5.89845
lhand -50.3645 -55.6828
lfingers 7.12502
lthumb -22.9389 332.973
rfemur -2.30286 19.9304 26.3766
rtibia 5.23933
rfoot -16.4231 -24.2359
rtoes 4.39507
lfemur 4.02663 -40.0211 -10.129
ltibia -3.57588
lfoot -14.7564 46.8797
ltoes 1.03271
1299
root -0.114408 17.5095 8.69995 7.52942 2.78274 -8.61285
lowerback -1.37678 1.41885 8.9731
upperback -7.63386 2.22922 1.15436
thorax -7.00132 0.590774 -3.89285
lowerneck -8.30187 -5.07158 -4.35699
upperneck 17.5325 -7.85839 8.3217
head 7.23413 -3.37623 2.71768
rclavicle -5.46658e-016 -2.90226e-014
rhumerus -59.5868 -3.57792 -81.0283
rradius 57.0209
rwrist 35.8088
rhand -24.8954 -31.8058
rfingers 7.12502
rthumb 1.61264 -1501.78
lclavicle -5.46658e-016 -2.90226e-014
lhumerus -57.3933 1.19891 84.207
lradius 59.2706
lwrist 5.54127
lhand -50.3469 -53.8592
lfingers 7.12502
lthumb -22.9221 334.798
rfemur -1.87966 20.0354 26.5693
rtibia 5.22634
rfoot -16.409 -24.2027
rtoes 4.33802
lfemur 4.67861 -40.0425 -10.5133
ltibia -3.6543
lfoot -14.856 47.0253
ltoes 1.10063
1300
root -0.111561 17.5085 8.70291 7.41211 2.59114 -8.63369
lowerback -1.34223 1.43494 9.052
upperback -7.64162 2.25764 1.16675
thorax -7.02563 0.598832 -3.92566
lowerneck -8.4038 -5.11124 -4.39952
upperneck 17.8686 -7.93555 8.33245
head 7.36904 -3.40484 2.71881
rclavicle -1.41634e-014 -1.31198e-014
rhumerus -59.0076 -4.44485 -80.2908
rradius 53.5656
rwrist 36.4528
rhand -24.8574 -31.8643
rfingers 7.12502
rthumb 1.64927 -1501.84
lclavicle -1.41634e-014 -1.31198e-014
lhumerus -56.5561 2.67858 83.2218
lradius 55.5237
lwrist 4.4046
lhand -49.7511 -51.5968
lfingers 7.12502
lthumb -22.3502 337.13
rfemur -1.7769 20.0351 26.6179
rtibia 5.28378
rfoot -16.3459 -24.0568
rtoes 4.0753
lfemur 4.92536 -39.8855 -10.6683
ltibia -3.64834
lfoot -14.933 47.041
ltoes 1.20355
